<svg xmlns="http://www.w3.org/2000/svg" xmlns:xlink="http://www.w3.org/1999/xlink" width="50" zoomAndPan="magnify" viewBox="0 0 37.5 37.499999" height="50" preserveAspectRatio="xMidYMid meet" version="1.0"><defs><clipPath id="a44decc131"><path d="M 0.632812 0 L 36.160156 0 L 36.160156 35.527344 L 0.632812 35.527344 Z M 0.632812 0 " clip-rule="nonzero"/></clipPath></defs><path fill="#4070f4" d="M 4.472656 18.5625 L 3.707031 18.5625 L 3.707031 20.320312 L 4.472656 20.320312 C 4.957031 20.320312 5.351562 19.925781 5.351562 19.441406 C 5.351562 18.957031 4.957031 18.5625 4.472656 18.5625 " fill-opacity="1" fill-rule="nonzero"/><path fill="#4070f4" d="M 4.472656 20.960938 L 3.707031 20.960938 L 3.707031 22.71875 L 4.472656 22.71875 C 4.957031 22.71875 5.351562 22.324219 5.351562 21.839844 C 5.351562 21.355469 4.957031 20.960938 4.472656 20.960938 " fill-opacity="1" fill-rule="nonzero"/><path fill="#4070f4" d="M 13.785156 18.5625 L 13.167969 18.5625 C 12.726562 18.5625 12.363281 18.921875 12.363281 19.367188 L 12.363281 21.914062 C 12.363281 22.359375 12.726562 22.71875 13.167969 22.71875 L 13.785156 22.71875 C 14.226562 22.71875 14.589844 22.359375 14.589844 21.914062 L 14.589844 19.367188 C 14.589844 18.921875 14.226562 18.5625 13.785156 18.5625 " fill-opacity="1" fill-rule="nonzero"/><g clip-path="url(#a44decc131)"><path fill="#4070f4" d="M 32.203125 28.28125 C 31.527344 28.28125 30.980469 27.730469 30.980469 27.058594 C 30.980469 26.5 31.363281 26.023438 31.878906 25.882812 L 31.878906 24.011719 L 32.523438 24.011719 L 32.523438 25.882812 C 33.042969 26.023438 33.421875 26.5 33.421875 27.058594 C 33.421875 27.730469 32.875 28.28125 32.203125 28.28125 Z M 20.328125 21.761719 C 20.328125 22.644531 19.609375 23.363281 18.726562 23.363281 L 18.417969 23.363281 C 17.535156 23.363281 16.816406 22.644531 16.816406 21.761719 L 16.816406 19.519531 C 16.816406 18.636719 17.535156 17.917969 18.417969 17.917969 L 18.726562 17.917969 C 19.453125 17.917969 20.089844 18.410156 20.273438 19.109375 L 19.652344 19.273438 C 19.542969 18.855469 19.160156 18.5625 18.726562 18.5625 L 18.417969 18.5625 C 17.890625 18.5625 17.460938 18.992188 17.460938 19.519531 L 17.460938 21.761719 C 17.460938 22.289062 17.890625 22.71875 18.417969 22.71875 L 18.726562 22.71875 C 19.253906 22.71875 19.6875 22.289062 19.6875 21.761719 L 19.6875 21.308594 L 19.179688 21.308594 L 19.179688 20.664062 L 20.328125 20.664062 Z M 15.230469 21.914062 C 15.230469 22.714844 14.582031 23.363281 13.785156 23.363281 L 13.167969 23.363281 C 12.371094 23.363281 11.722656 22.714844 11.722656 21.914062 L 11.722656 19.367188 C 11.722656 18.566406 12.371094 17.917969 13.167969 17.917969 L 13.785156 17.917969 C 14.582031 17.917969 15.230469 18.566406 15.230469 19.367188 Z M 10.484375 23.363281 L 7.875 23.363281 L 7.875 18.238281 L 8.519531 18.238281 L 8.519531 22.71875 L 10.484375 22.71875 Z M 5.992188 21.839844 C 5.992188 22.679688 5.3125 23.363281 4.472656 23.363281 L 3.0625 23.363281 L 3.0625 17.917969 L 4.472656 17.917969 C 5.3125 17.917969 5.992188 18.601562 5.992188 19.441406 C 5.992188 19.929688 5.761719 20.359375 5.40625 20.640625 C 5.761719 20.917969 5.992188 21.351562 5.992188 21.839844 Z M 33.980469 22.46875 L 32.523438 22.46875 L 32.523438 4.859375 C 32.523438 2.183594 30.347656 0.00390625 27.671875 0.00390625 C 24.996094 0.00390625 22.816406 2.183594 22.816406 4.859375 L 4.496094 4.859375 C 2.363281 4.859375 0.632812 6.585938 0.632812 8.71875 L 0.632812 35.371094 L 23.460938 35.371094 L 23.460938 4.859375 C 23.460938 2.535156 25.351562 0.648438 27.671875 0.648438 C 29.992188 0.648438 31.878906 2.535156 31.878906 4.859375 L 31.878906 22.46875 L 30.421875 22.46875 C 29.105469 22.46875 28.035156 23.539062 28.035156 24.855469 L 28.035156 32.984375 C 28.035156 34.304688 29.105469 35.371094 30.421875 35.371094 L 33.980469 35.371094 C 35.296875 35.371094 36.367188 34.304688 36.367188 32.984375 L 36.367188 24.855469 C 36.367188 23.539062 35.296875 22.46875 33.980469 22.46875 " fill-opacity="1" fill-rule="nonzero"/></g></svg>